<mxfile host="Electron" modified="2023-09-30T13:47:16.295Z" agent="Mozilla/5.0 (Windows NT 10.0; Win64; x64) AppleWebKit/537.36 (KHTML, like Gecko) draw.io/21.7.5 Chrome/114.0.5735.289 Electron/25.8.1 Safari/537.36" etag="ukx205t4UelyNfyEqsRG" version="21.7.5" type="device">
  <diagram name="Page-1" id="vWaXoC552Gwl62MlN6s1">
    <mxGraphModel dx="1434" dy="844" grid="1" gridSize="10" guides="1" tooltips="1" connect="1" arrows="1" fold="1" page="1" pageScale="1" pageWidth="1500" pageHeight="1500" math="0" shadow="0">
      <root>
        <mxCell id="0" />
        <mxCell id="1" parent="0" />
        <mxCell id="k1BlDGN8zXKe93ravz7B-1" value="" style="shape=actor;whiteSpace=wrap;html=1;" vertex="1" parent="1">
          <mxGeometry x="350" y="50" width="70" height="90" as="geometry" />
        </mxCell>
        <mxCell id="k1BlDGN8zXKe93ravz7B-7" style="edgeStyle=orthogonalEdgeStyle;rounded=0;orthogonalLoop=1;jettySize=auto;html=1;entryX=0.5;entryY=0;entryDx=0;entryDy=0;" edge="1" parent="1" source="k1BlDGN8zXKe93ravz7B-2" target="k1BlDGN8zXKe93ravz7B-6">
          <mxGeometry relative="1" as="geometry" />
        </mxCell>
        <UserObject label="Budgeting Controller" tooltip="Component&#xa;" id="k1BlDGN8zXKe93ravz7B-2">
          <mxCell style="rounded=0;whiteSpace=wrap;html=1;" vertex="1" parent="1">
            <mxGeometry x="190" y="310" width="120" height="60" as="geometry" />
          </mxCell>
        </UserObject>
        <mxCell id="k1BlDGN8zXKe93ravz7B-4" style="edgeStyle=orthogonalEdgeStyle;rounded=0;orthogonalLoop=1;jettySize=auto;html=1;entryX=0.5;entryY=1;entryDx=0;entryDy=0;" edge="1" parent="1" source="k1BlDGN8zXKe93ravz7B-3" target="k1BlDGN8zXKe93ravz7B-1">
          <mxGeometry relative="1" as="geometry" />
        </mxCell>
        <mxCell id="k1BlDGN8zXKe93ravz7B-5" style="edgeStyle=orthogonalEdgeStyle;rounded=0;orthogonalLoop=1;jettySize=auto;html=1;entryX=0.5;entryY=0;entryDx=0;entryDy=0;" edge="1" parent="1" source="k1BlDGN8zXKe93ravz7B-3" target="k1BlDGN8zXKe93ravz7B-2">
          <mxGeometry relative="1" as="geometry" />
        </mxCell>
        <mxCell id="k1BlDGN8zXKe93ravz7B-3" value="Change Budget View" style="shape=step;perimeter=stepPerimeter;whiteSpace=wrap;html=1;fixedSize=1;" vertex="1" parent="1">
          <mxGeometry x="170" y="170" width="160" height="80" as="geometry" />
        </mxCell>
        <mxCell id="k1BlDGN8zXKe93ravz7B-6" value="Update All Expenses" style="shape=process;whiteSpace=wrap;html=1;backgroundOutline=1;" vertex="1" parent="1">
          <mxGeometry x="190" y="430" width="120" height="60" as="geometry" />
        </mxCell>
        <mxCell id="k1BlDGN8zXKe93ravz7B-10" style="edgeStyle=orthogonalEdgeStyle;rounded=0;orthogonalLoop=1;jettySize=auto;html=1;entryX=1;entryY=0.5;entryDx=0;entryDy=0;" edge="1" parent="1" source="k1BlDGN8zXKe93ravz7B-9" target="k1BlDGN8zXKe93ravz7B-6">
          <mxGeometry relative="1" as="geometry" />
        </mxCell>
        <mxCell id="k1BlDGN8zXKe93ravz7B-9" value="Transaction History Controller" style="rounded=0;whiteSpace=wrap;html=1;" vertex="1" parent="1">
          <mxGeometry x="380" y="430" width="120" height="60" as="geometry" />
        </mxCell>
        <mxCell id="k1BlDGN8zXKe93ravz7B-12" style="edgeStyle=orthogonalEdgeStyle;rounded=0;orthogonalLoop=1;jettySize=auto;html=1;entryX=1;entryY=0.5;entryDx=0;entryDy=0;" edge="1" parent="1" source="k1BlDGN8zXKe93ravz7B-11" target="k1BlDGN8zXKe93ravz7B-9">
          <mxGeometry relative="1" as="geometry" />
        </mxCell>
        <mxCell id="k1BlDGN8zXKe93ravz7B-11" value="Get Transactions" style="shape=process;whiteSpace=wrap;html=1;backgroundOutline=1;" vertex="1" parent="1">
          <mxGeometry x="580" y="430" width="120" height="60" as="geometry" />
        </mxCell>
        <mxCell id="k1BlDGN8zXKe93ravz7B-16" value="" style="edgeStyle=orthogonalEdgeStyle;rounded=0;orthogonalLoop=1;jettySize=auto;html=1;entryX=0;entryY=0.5;entryDx=0;entryDy=0;" edge="1" parent="1" source="k1BlDGN8zXKe93ravz7B-13" target="k1BlDGN8zXKe93ravz7B-2">
          <mxGeometry relative="1" as="geometry" />
        </mxCell>
        <mxCell id="k1BlDGN8zXKe93ravz7B-21" style="edgeStyle=orthogonalEdgeStyle;rounded=0;orthogonalLoop=1;jettySize=auto;html=1;entryX=0.5;entryY=1;entryDx=0;entryDy=0;" edge="1" parent="1" source="k1BlDGN8zXKe93ravz7B-13" target="k1BlDGN8zXKe93ravz7B-9">
          <mxGeometry relative="1" as="geometry" />
        </mxCell>
        <mxCell id="k1BlDGN8zXKe93ravz7B-13" value="User Management Controller" style="rounded=0;whiteSpace=wrap;html=1;" vertex="1" parent="1">
          <mxGeometry x="70" y="540" width="120" height="60" as="geometry" />
        </mxCell>
        <mxCell id="k1BlDGN8zXKe93ravz7B-18" style="edgeStyle=orthogonalEdgeStyle;rounded=0;orthogonalLoop=1;jettySize=auto;html=1;entryX=0.5;entryY=1;entryDx=0;entryDy=0;" edge="1" parent="1" source="k1BlDGN8zXKe93ravz7B-17" target="k1BlDGN8zXKe93ravz7B-13">
          <mxGeometry relative="1" as="geometry" />
        </mxCell>
        <mxCell id="k1BlDGN8zXKe93ravz7B-17" value="Get Profile" style="shape=process;whiteSpace=wrap;html=1;backgroundOutline=1;" vertex="1" parent="1">
          <mxGeometry x="70" y="670" width="120" height="60" as="geometry" />
        </mxCell>
        <mxCell id="k1BlDGN8zXKe93ravz7B-24" style="edgeStyle=orthogonalEdgeStyle;rounded=0;orthogonalLoop=1;jettySize=auto;html=1;" edge="1" parent="1" source="k1BlDGN8zXKe93ravz7B-23" target="k1BlDGN8zXKe93ravz7B-2">
          <mxGeometry relative="1" as="geometry" />
        </mxCell>
        <mxCell id="k1BlDGN8zXKe93ravz7B-23" value="Get Expenses" style="shape=process;whiteSpace=wrap;html=1;backgroundOutline=1;" vertex="1" parent="1">
          <mxGeometry x="410" y="310" width="120" height="60" as="geometry" />
        </mxCell>
      </root>
    </mxGraphModel>
  </diagram>
</mxfile>
